<svg width="19" height="17" viewBox="0 0 19 17" fill="none" xmlns="http://www.w3.org/2000/svg">
<path d="M18.0289 15.9375H17.2411V0.796875C17.2411 0.356768 16.8178 0 16.2957 0H3.06038C2.53825 0 2.115 0.356768 2.115 0.796875V15.9375H1.32718C1.06614 15.9375 0.854492 16.1159 0.854492 16.3359V17H18.5016V16.3359C18.5016 16.1159 18.29 15.9375 18.0289 15.9375ZM5.89652 2.52344C5.89652 2.3034 6.10817 2.125 6.36921 2.125H7.94485C8.20589 2.125 8.41754 2.3034 8.41754 2.52344V3.85156C8.41754 4.0716 8.20589 4.25 7.94485 4.25H6.36921C6.10817 4.25 5.89652 4.0716 5.89652 3.85156V2.52344ZM5.89652 5.71094C5.89652 5.4909 6.10817 5.3125 6.36921 5.3125H7.94485C8.20589 5.3125 8.41754 5.4909 8.41754 5.71094V7.03906C8.41754 7.2591 8.20589 7.4375 7.94485 7.4375H6.36921C6.10817 7.4375 5.89652 7.2591 5.89652 7.03906V5.71094ZM7.94485 10.625H6.36921C6.10817 10.625 5.89652 10.4466 5.89652 10.2266V8.89844C5.89652 8.6784 6.10817 8.5 6.36921 8.5H7.94485C8.20589 8.5 8.41754 8.6784 8.41754 8.89844V10.2266C8.41754 10.4466 8.20589 10.625 7.94485 10.625ZM10.9386 15.9375H8.41754V13.1484C8.41754 12.9284 8.62918 12.75 8.89023 12.75H10.4659C10.7269 12.75 10.9386 12.9284 10.9386 13.1484V15.9375ZM13.4596 10.2266C13.4596 10.4466 13.2479 10.625 12.9869 10.625H11.4112C11.1502 10.625 10.9386 10.4466 10.9386 10.2266V8.89844C10.9386 8.6784 11.1502 8.5 11.4112 8.5H12.9869C13.2479 8.5 13.4596 8.6784 13.4596 8.89844V10.2266ZM13.4596 7.03906C13.4596 7.2591 13.2479 7.4375 12.9869 7.4375H11.4112C11.1502 7.4375 10.9386 7.2591 10.9386 7.03906V5.71094C10.9386 5.4909 11.1502 5.3125 11.4112 5.3125H12.9869C13.2479 5.3125 13.4596 5.4909 13.4596 5.71094V7.03906ZM13.4596 3.85156C13.4596 4.0716 13.2479 4.25 12.9869 4.25H11.4112C11.1502 4.25 10.9386 4.0716 10.9386 3.85156V2.52344C10.9386 2.3034 11.1502 2.125 11.4112 2.125H12.9869C13.2479 2.125 13.4596 2.3034 13.4596 2.52344V3.85156Z" fill="#F7F7F7"/>
</svg>
