<svg width="18" height="17" viewBox="0 0 18 17" fill="none" xmlns="http://www.w3.org/2000/svg">
<path d="M13.9045 5.3125V4.25C13.9045 1.90652 11.7756 0 9.15901 0C6.54235 0 4.41357 1.90652 4.41357 4.25V5.3125H0.854492V14.3438C0.854492 15.8108 2.18236 17 3.82039 17H14.4976C16.1357 17 17.4635 15.8108 17.4635 14.3438V5.3125H13.9045ZM6.78629 4.25C6.78629 3.07826 7.85068 2.125 9.15901 2.125C10.4673 2.125 11.5317 3.07826 11.5317 4.25V5.3125H6.78629V4.25ZM12.7181 8.23438C12.2267 8.23438 11.8283 7.87761 11.8283 7.4375C11.8283 6.99739 12.2267 6.64062 12.7181 6.64062C13.2095 6.64062 13.6079 6.99739 13.6079 7.4375C13.6079 7.87761 13.2095 8.23438 12.7181 8.23438ZM5.59993 8.23438C5.10852 8.23438 4.71016 7.87761 4.71016 7.4375C4.71016 6.99739 5.10852 6.64062 5.59993 6.64062C6.09135 6.64062 6.4897 6.99739 6.4897 7.4375C6.4897 7.87761 6.09135 8.23438 5.59993 8.23438Z" fill="#203C61"/>
</svg>
