<svg width="24" height="17" viewBox="0 0 24 17" fill="none" xmlns="http://www.w3.org/2000/svg">
<path d="M19.2309 5.66657C18.6722 5.66215 18.1398 5.7684 17.6412 5.97204L16.4077 3.54161H19.497C19.9957 3.54161 20.3969 3.06792 20.3969 2.47913V1.06248C20.3969 0.47369 19.9957 0 19.497 0H17.7987C17.5437 0 17.3 0.128383 17.1313 0.349734L15.7253 2.1958L14.8705 0.513533C14.7056 0.194788 14.4131 0 14.0982 0H11.0988C10.7689 0 10.499 0.318745 10.499 0.708322V1.41664C10.499 1.80622 10.7689 2.12497 11.0988 2.12497H13.5883L14.3082 3.54161H8.54564C7.88203 2.51897 6.86225 1.7708 4.80019 1.7708H2.71938C2.21324 1.7708 1.78958 2.25778 1.80083 2.85542C1.80833 3.43093 2.20949 3.89577 2.70064 3.89577H4.80019C5.71874 3.89577 6.25113 4.37831 6.5923 4.99367L6.16864 5.90121C5.68125 5.72855 5.16011 5.64887 4.62023 5.671C2.09702 5.77725 0.0612012 8.21653 0.00121402 11.2003C-0.0587731 14.3922 2.11201 16.9997 4.80019 16.9997C7.03471 16.9997 8.91306 15.1935 9.44919 12.7498H12.606C13.1197 12.7498 13.5283 12.2451 13.5058 11.6386C13.4271 9.55349 14.1619 7.4905 15.6129 6.10485L16.0815 7.02567C15.0467 8.07487 14.3906 9.63318 14.4019 11.373C14.4206 14.4542 16.5464 16.9732 19.1559 16.9997C21.8403 17.0307 24.0223 14.4542 23.9998 11.2845C23.9736 8.20325 21.8403 5.68871 19.2309 5.66657ZM4.80019 14.8748C3.14679 14.8748 1.80083 13.2855 1.80083 11.3331C1.80083 9.38084 3.14679 7.79154 4.80019 7.79154C4.95765 7.79154 5.11512 7.80482 5.26884 7.83581L3.71292 11.1738C3.38299 11.8821 3.8179 12.7498 4.50025 12.7498H7.54835C7.08345 13.9982 6.02617 14.8748 4.80019 14.8748ZM22.1927 11.5279C22.1102 13.3253 20.8805 14.7774 19.3621 14.8703C17.6337 14.981 16.1977 13.3519 16.1977 11.3331C16.1977 10.3858 16.5127 9.52693 17.0263 8.89387L18.8784 12.5417C19.0471 12.8782 19.4183 12.9844 19.7032 12.7852L20.2169 12.4222C20.5018 12.223 20.5918 11.7847 20.4231 11.4483L18.601 7.8668C18.7959 7.8181 18.9946 7.79597 19.1971 7.79597C20.9067 7.79154 22.2827 9.48709 22.1927 11.5279Z" fill="#203C61"/>
</svg>
